:SAMPLES-PER-SECOND 30
:FULLY-SPECIFIED
:DEGREES
322
root  6.32572 33.1054 -58.8461 -161.055 3.84798 178.095
RightUpLeg  -19.2575 -3.46459 -0.51951
RightLeg  71.4285 14.5855 -5.39484
RightFoot  5.4055 -1.45832 8.56649
RightToes  -5.82073e-011 -3.18055e-015 -2.98177e-016
Spine  26.4431 2.48268 0.258817
Spine1  -8.35354 2.33423 -9.97815
HEad  -34.6988 -5.61622 3.2156
LeftShoulder1  -3.88251e-019 9.70628e-020 -3.87848e-018
LeftArm  -21.0939 48.8358 -62.2586
LeftForeArm  0.484732 -10.4744 -2.17267
LeftHand  -0.288189 -2.12125 4.87082
RightShoulder  6.74406 10.4557 31.6688
RightArm  22.9413 -37.9421 22.7247
RightForeArm  5.78789 21.0541 -10.8435
RightHand  -1.39729 6.29205 -13.8161
LeftUpLeg  -58.2521 4.69133 -17.0507
LeftLeg  58.907 -0.739584 24.9751
LeftFoot  -23.362 0.011491 0.829373
LeftToes  -3.44176e-011 4.05998e-011 -5.21293e-012
323
root  6.31844 34.0595 -58.7775 -161.806 5.01164 178.407
RightUpLeg  -23.3002 -3.61849 -0.328331
RightLeg  73.2204 14.4874 -6.48361
RightFoot  -2.08644 -0.533666 5.55032
RightToes  -5.82073e-011 -3.18055e-015 -2.98177e-016
Spine  26.8494 2.43501 0.0161485
Spine1  -8.38599 2.43655 -9.30353
HEad  -34.9225 -4.58239 3.30222
LeftShoulder1  -3.88251e-019 9.70628e-020 -3.87848e-018
LeftArm  -21.3342 48.4968 -64.5325
LeftForeArm  1.52979 -11.3249 -2.56923
LeftHand  -0.351889 -2.7262 5.48629
RightShoulder  6.92261 10.5381 32.4236
RightArm  23.7267 -37.2787 22.8244
RightForeArm  0.782868 22.2325 -11.9518
RightHand  -1.45277 6.03745 -14.6628
LeftUpLeg  -54.8239 5.44559 -16.4615
LeftLeg  54.1902 1.5117 24.0114
LeftFoot  -20.9228 0.0374954 1.37139
LeftToes  -3.44176e-011 4.05998e-011 -5.21293e-012
324
root  6.31072 35.0054 -58.7743 -162.711 6.38904 178.87
RightUpLeg  -27.4178 -4.04544 0.151951
RightLeg  72.8562 13.7986 -9.24558
RightFoot  -6.96796 -0.198021 4.0141
RightToes  -5.82073e-011 -3.18055e-015 -2.98177e-016
Spine  27.1048 2.66059 -0.322657
Spine1  -8.49768 2.64139 -7.58883
HEad  -34.9816 -3.63744 3.02135
LeftShoulder1  -3.88251e-019 9.70628e-020 -3.87848e-018
LeftArm  -21.4773 47.7059 -66.9353
LeftForeArm  3.08249 -12.2186 -3.03531
LeftHand  -0.290521 -2.55458 4.64513
RightShoulder  6.8857 10.5424 32.2226
RightArm  22.6531 -37.0888 23.5262
RightForeArm  -1.94117 23.1949 -12.4563
RightHand  -1.47179 5.93953 -14.9746
LeftUpLeg  -51.0023 6.40482 -15.7183
LeftLeg  49.2802 3.82418 22.8678
LeftFoot  -18.5386 0.0363277 1.81169
LeftToes  -3.44176e-011 4.05998e-011 -5.21293e-012
325
root  6.31434 35.9208 -58.8349 -163.539 7.73749 179.698
RightUpLeg  -31.238 -4.8275 1.3067
RightLeg  69.798 12.2333 -13.0835
RightFoot  -8.26366 -0.0901626 2.60373
RightToes  -5.82073e-011 -3.18055e-015 -2.98177e-016
Spine  26.9546 2.85213 -0.253575
Spine1  -8.513 2.76239 -5.47474
HEad  -34.9042 -2.64708 2.60847
LeftShoulder1  -3.88251e-019 9.70628e-020 -3.87848e-018
LeftArm  -21.3715 46.5475 -68.8707
LeftForeArm  4.2838 -13.5159 -3.42985
LeftHand  -0.255069 -2.37912 4.19126
RightShoulder  6.73622 10.5055 31.5254
RightArm  21.2878 -37.1691 24.6158
RightForeArm  -2.14779 23.8296 -12.749
RightHand  -1.48988 6.10582 -14.9446
LeftUpLeg  -47.047 7.25591 -14.4875
LeftLeg  44.2522 6.17844 21.5651
LeftFoot  -16.2181 0.015301 2.16286
LeftToes  -3.44176e-011 4.05998e-011 -5.21293e-012
326
root  6.34378 36.7422 -58.9185 -164.291 8.93571 -179.412
RightUpLeg  -33.9526 -6.00431 2.7624
RightLeg  64.3311 9.81539 -15.9781
RightFoot  -9.08689 -0.0387099 1.77143
RightToes  -5.82073e-011 -3.18055e-015 -2.98177e-016
Spine  26.5215 2.62163 0.43493
Spine1  -8.44687 2.65918 -4.61414
HEad  -34.5086 -1.44939 2.76079
LeftShoulder1  -3.88251e-019 9.70628e-020 -3.87848e-018
LeftArm  -20.5452 45.0036 -69.6059
LeftForeArm  5.13362 -15.0479 -3.5468
LeftHand  -0.330277 -2.81856 5.0867
RightShoulder  6.78555 10.5248 31.7405
RightArm  20.98 -37.0639 24.9976
RightForeArm  -0.239079 24.4811 -13.1628
RightHand  -1.5076 6.52229 -14.6093
LeftUpLeg  -43.178 7.78589 -13.07
LeftLeg  39.3514 8.50435 20.1939
LeftFoot  -13.9472 -0.0191343 2.49167
LeftToes  -3.44176e-011 4.05998e-011 -5.21293e-012
327
root  6.40823 37.4414 -59.0233 -165.15 10.075 -178.91
RightUpLeg  -35.1273 -7.23707 3.84687
RightLeg  57.0369 7.37837 -16.0102
RightFoot  -10.6979 -0.0141801 2.03304
RightToes  -5.82073e-011 -3.18055e-015 -2.98177e-016
Spine  25.8645 2.28919 0.989255
Spine1  -8.22693 2.53639 -4.56531
HEad  -33.9359 0.123342 3.38351
LeftShoulder1  -3.88251e-019 9.70628e-020 -3.87848e-018
LeftArm  -18.7394 43.1304 -69.5657
LeftForeArm  5.51197 -16.6135 -3.41592
LeftHand  -0.428687 -3.43108 6.12352
RightShoulder  6.95927 10.5708 32.5433
RightArm  21.5639 -36.8829 24.4472
RightForeArm  2.8464 25.288 -13.7124
RightHand  -1.50883 7.01244 -14.0628
LeftUpLeg  -39.2854 8.11123 -11.9884
LeftLeg  34.6377 10.7172 18.7152
LeftFoot  -11.8443 -0.0622401 2.78345
LeftToes  -3.44176e-011 4.05998e-011 -5.21293e-012
328
root  6.50748 38.0264 -59.1838 -166.193 11.1813 -178.477
RightUpLeg  -34.6143 -7.96841 4.72639
RightLeg  47.8434 6.10168 -13.0529
RightFoot  -12.0231 0.0109098 2.3061
RightToes  -5.82073e-011 -3.18055e-015 -2.98177e-016
Spine  24.9099 2.28308 1.26873
Spine1  -7.76786 2.57082 -3.7327
HEad  -32.9496 1.50213 3.39619
LeftShoulder1  -3.88251e-019 9.70628e-020 -3.87848e-018
LeftArm  -15.7825 41.2006 -69.4421
LeftForeArm  4.51942 -18.5756 -2.97917
LeftHand  -0.463526 -3.69422 6.41245
RightShoulder  7.01062 10.5774 32.7934
RightArm  22.4298 -36.8299 23.5838
RightForeArm  5.63168 25.9211 -14.1631
RightHand  -1.506 7.44675 -13.578
LeftUpLeg  -35.3256 8.36926 -10.9091
LeftLeg  30.3486 12.7377 17.2433
LeftFoot  -10.138 -0.100729 2.86146
LeftToes  -3.44176e-011 4.05998e-011 -5.21293e-012
